<svg width="70" height="72" viewBox="0 0 70 72" fill="none" xmlns="http://www.w3.org/2000/svg">
<path d="M70 36C70 55.8823 54.33 72 35 72C15.67 72 0 55.8823 0 36C0 16.1177 15.67 0 35 0C54.33 0 70 16.1177 70 36ZM30.9516 55.0617L56.9193 28.352C57.8011 27.4451 57.8011 25.9744 56.9193 25.0675L53.726 21.7829C52.8442 20.8758 51.4144 20.8758 50.5325 21.7829L29.3548 43.5655L19.4675 33.3957C18.5857 32.4887 17.1559 32.4887 16.274 33.3957L13.0807 36.6802C12.1989 37.5872 12.1989 39.0578 13.0807 39.9648L27.7581 55.0616C28.64 55.9687 30.0697 55.9687 30.9516 55.0617Z" fill="#45B91C"/>
</svg>
