<?xml version="1.0" encoding="utf-8"?>
<!-- Uploaded to: SVG Repo, www.svgrepo.com, Generator: SVG Repo Mixer Tools -->
<svg fill="#000000" width="800px" height="800px" viewBox="0 0 32 32" version="1.1" xmlns="http://www.w3.org/2000/svg">
<title>clipboard-medical</title>
<path d="M26 5.25h-2c-0.414 0-0.75 0.336-0.75 0.75s0.336 0.75 0.75 0.75v0h1.25v22.5h-18.5v-22.5h1.25c0.414 0 0.75-0.336 0.75-0.75s-0.336-0.75-0.75-0.75v0h-2c-0.414 0-0.75 0.336-0.75 0.75v0 24c0 0.414 0.336 0.75 0.75 0.75h20c0.414-0 0.75-0.336 0.75-0.75v0-24c-0-0.414-0.336-0.75-0.75-0.75v0zM11 8.749h10c0.414 0 0.75-0.336 0.75-0.75s-0.336-0.75-0.75-0.75v0h-2.019c0.477-0.616 0.766-1.398 0.769-2.248v-0.001c0-2.071-1.679-3.75-3.75-3.75s-3.75 1.679-3.75 3.75v0c0.003 0.851 0.292 1.633 0.775 2.258l-0.006-0.009h-2.019c-0.414 0-0.75 0.336-0.75 0.75s0.336 0.75 0.75 0.75v0zM13.75 5c0-0 0-0.001 0-0.001 0-1.243 1.007-2.25 2.25-2.25s2.25 1.007 2.25 2.25c0 1.243-1.007 2.25-2.25 2.25v0c-1.242-0.002-2.248-1.008-2.25-2.249v-0zM17.5 23.516v-4.016h4.016v-3h-4.016v-4.014h-3v4.014h-4.014v3h4.014v4.016h3z"></path>
</svg>